<svg width="28" height="26" viewBox="0 0 28 26" fill="none" xmlns="http://www.w3.org/2000/svg">
<path d="M21.1553 8.56738C26.6865 8.56738 27.9999 11.2357 28 16.1318V25.2002H22.4004V17.2471C22.4004 14.4588 21.6509 12.8867 19.7441 12.8867C17.0995 12.8867 16.001 14.5812 16.001 17.2461V25.2002H10.4004V8.78125H15.6006V11.1123C16.3497 9.77176 18.2701 8.5674 21.1553 8.56738ZM6.39746 24.9863H0.797852V8.56738H6.39746V24.9863ZM3.59961 0C4.55433 4.95359e-05 5.47033 0.33917 6.14648 0.941406C6.82103 1.54363 7.20016 2.36006 7.2002 3.21289C7.2004 3.63524 7.10765 4.05365 6.92676 4.44336C6.74584 4.83301 6.48044 5.18674 6.14648 5.4834C5.46944 6.08898 4.55219 6.42786 3.59766 6.42578C2.64493 6.42512 1.73069 6.08683 1.05273 5.48438C0.719943 5.1867 0.45503 4.8331 0.274414 4.44336C0.0937956 4.05356 0.000810692 3.63522 0 3.21289C3.28207e-05 2.35991 0.378517 1.54366 1.05469 0.941406C1.73211 0.338166 2.64663 -0.000377288 3.59961 0Z" fill="#8C8C8C"/>
</svg>
